<svg id="Capa_1" enable-background="new 0 0 510 510" height="512" viewBox="0 0 510 510" width="512" xmlns="http://www.w3.org/2000/svg"><g><path d="m510 60h-93.801l-35.036-42.822c-8.932-10.917-22.145-17.178-36.251-17.178-13.94 0-27.056 6.143-35.982 16.854l-32.035 38.442-96.895-22.947v-32.349h-30v25.873c-34.529-4.593-69.609 6.093-95.793 29.659-9.028 8.127-14.207 19.755-14.207 31.903v9.646c0 19.165 12.628 35.433 30 40.929v51.99c0 39.905 22.378 74.68 55.242 92.441l-25.763 8.587c-21.314 7.105-40.979 19.259-56.866 35.146-27.479 27.479-42.613 64.014-42.613 102.875v80.951h350v-80.951c0-37.087-13.793-72.049-38.936-99.049h198.936zm-178.024-23.94c3.21-3.851 7.925-6.06 12.937-6.06 5.071 0 9.821 2.251 13.032 6.176l19.492 23.824h-65.412zm6.589 166.1c28.295-4.198 58.672 3.636 81.435 20.964v16.876h-148.689c16.826-20.057 41.418-34.002 67.254-37.84zm81.435-14.593c-26.062-13.999-56.331-19.466-85.841-15.081-19.404 2.881-37.883 9.934-54.2 20.382.026-.954.041-1.909.041-2.869v-40h140zm-350-100.132c0-3.657 1.559-7.157 4.276-9.604 16.638-14.974 38.065-23.011 59.973-23.011 6.881 0 13.811.793 20.651 2.414l115.157 27.273c5.854 1.387 9.943 6.556 9.943 12.573 0 7.124-5.796 12.92-12.92 12.92h-184.16c-7.124 0-12.92-5.796-12.92-12.92zm30 102.565v-50h150v50c0 19.194-7.256 36.721-19.158 50h-.842v.919c-13.708 14.797-33.286 24.081-55 24.081-41.355 0-75-33.645-75-75zm-5 215h160v75h-160zm63.504-30-7.324-69.582 23.82-7.94 28.623 9.541-11.33 67.981zm96.496 0h-32.293l9.729-58.377 8.598 2.866c4.774 1.591 9.438 3.512 13.966 5.718zm-146.034-55.511 13.07-4.357 6.302 59.868h-33.338v-49.792c4.527-2.207 9.192-4.127 13.966-5.719zm-78.966 109.56c0-30.848 12.013-59.849 33.825-81.661.386-.386.783-.76 1.175-1.141v133.753h-35zm290 50.951h-35v-133.753c.392.38.789.755 1.175 1.141 21.812 21.812 33.825 50.813 33.825 81.661zm160-180h-208.378c-6.789-3.537-13.846-6.553-21.102-8.972l-25.763-8.587c6.498-3.512 12.582-7.691 18.168-12.441h207.075v-150h-146.66c4.21-6.637 6.66-14.496 6.66-22.92 0-2.407-.202-4.771-.582-7.08h170.582z"/></g></svg>